<svg xmlns="http://www.w3.org/2000/svg" viewBox="0 0 512 512" role="img" aria-label="A&amp;M Universe">
  <rect width="512" height="512" rx="112" fill="#12241B"/>
  <g transform="translate(70,64) scale(3.1)" fill="#CBA968">
    <circle cx="60" cy="60" r="53" fill="none" stroke="#CBA968" stroke-width="2.2" opacity=".6"/>
    <circle cx="44" cy="55" r="21"/>
    <ellipse cx="73" cy="59" rx="27" ry="21"/>
    <ellipse cx="52" cy="49" rx="11" ry="13"/>
    <rect x="56" y="73" width="9" height="18" rx="4.5"/>
    <rect x="72" y="73" width="9" height="18" rx="4.5"/>
    <rect x="86" y="71" width="8" height="16" rx="4"/>
    <path d="M32,61 C24,71 22,83 29,87 C35,90 41,86 39,79" fill="none" stroke="#CBA968" stroke-width="10" stroke-linecap="round"/>
    <path d="M99,53 c7,3 6,11 2,15" fill="none" stroke="#CBA968" stroke-width="3" stroke-linecap="round"/>
    <circle cx="39" cy="51" r="2.6" fill="#12241B"/>
  </g>
</svg>
