<svg xmlns="http://www.w3.org/2000/svg" viewBox="0 0 1200 630" role="img" aria-label="A&amp;M Universe · Diseño con propósito">
  <defs>
    <radialGradient id="glow" cx="78%" cy="18%" r="70%">
      <stop offset="0%" stop-color="#1c3a2a"/>
      <stop offset="100%" stop-color="#12241B"/>
    </radialGradient>
  </defs>
  <rect width="1200" height="630" fill="url(#glow)"/>
  <rect x="24" y="24" width="1152" height="582" rx="26" fill="none" stroke="#CBA968" stroke-width="2" opacity=".35"/>

  <!-- Emblema -->
  <g transform="translate(120,175) scale(2.35)" fill="#CBA968">
    <circle cx="60" cy="60" r="53" fill="none" stroke="#CBA968" stroke-width="2.2" opacity=".6"/>
    <circle cx="44" cy="55" r="21"/>
    <ellipse cx="73" cy="59" rx="27" ry="21"/>
    <ellipse cx="52" cy="49" rx="11" ry="13"/>
    <rect x="56" y="73" width="9" height="18" rx="4.5"/>
    <rect x="72" y="73" width="9" height="18" rx="4.5"/>
    <rect x="86" y="71" width="8" height="16" rx="4"/>
    <path d="M32,61 C24,71 22,83 29,87 C35,90 41,86 39,79" fill="none" stroke="#CBA968" stroke-width="10" stroke-linecap="round"/>
    <path d="M99,53 c7,3 6,11 2,15" fill="none" stroke="#CBA968" stroke-width="3" stroke-linecap="round"/>
    <circle cx="39" cy="51" r="2.6" fill="#12241B"/>
  </g>

  <!-- Texto -->
  <text x="470" y="250" font-family="Georgia, 'Times New Roman', serif" font-size="96" font-weight="600" fill="#ECE4D3">A&amp;M</text>
  <text x="474" y="298" font-family="Arial, sans-serif" font-size="30" letter-spacing="16" fill="#CBA968">UNIVERSE</text>
  <text x="472" y="382" font-family="Georgia, serif" font-style="italic" font-size="44" fill="#CBA968">Diseño con propósito.</text>
  <text x="472" y="440" font-family="Arial, sans-serif" font-size="27" fill="#A7B7AB">Camisetas estampadas que cuentan historias</text>
  <text x="472" y="478" font-family="Arial, sans-serif" font-size="27" fill="#A7B7AB">y ayudan a los animales.</text>
  <text x="472" y="540" font-family="Arial, sans-serif" font-size="23" fill="#CBA968">🐾  Calarcá, Quindío · Colombia — envíos a todo el país</text>
</svg>
