<svg xmlns="http://www.w3.org/2000/svg" viewBox="0 0 260 288" role="img" aria-label="Camiseta A&amp;M">
  <path d="M105,54 Q130,83 155,54 L177,52 L233,73 L251,117 L210,133 L204,125 L212,268 L48,268 L56,125 L50,133 L9,117 L27,73 Z" fill="#ECE5D6"/>
  <path d="M105,54 Q130,83 155,54 L177,52 L233,73 L251,117 L210,133 L204,125 L212,268 L48,268 L56,125 L50,133 L9,117 L27,73 Z" fill="none" stroke="#c9bea0" stroke-width="1" opacity=".5"/>
  <path d="M46,266 L214,266" stroke="#c9bea0" stroke-width="2" opacity=".35"/>
  <path d="M108,56 Q130,82 152,56" fill="none" stroke="#d7cdb8" stroke-width="5" stroke-linecap="round"/>
  <clipPath id="pc"><circle cx="130" cy="152" r="53"/></clipPath>
  <g clip-path="url(#pc)"><svg x="77" y="99" width="106" height="106" viewBox="0 0 104 104">
    <g transform="translate(9,9) scale(0.72)" fill="#8a6432">
      <circle cx="60" cy="60" r="53" fill="none" stroke="#8a6432" stroke-width="2.4" opacity=".55"/>
      <circle cx="44" cy="55" r="21"/><ellipse cx="73" cy="59" rx="27" ry="21"/><ellipse cx="52" cy="49" rx="11" ry="13"/>
      <rect x="56" y="73" width="9" height="18" rx="4.5"/><rect x="72" y="73" width="9" height="18" rx="4.5"/><rect x="86" y="71" width="8" height="16" rx="4"/>
      <path d="M32,61 C24,71 22,83 29,87 C35,90 41,86 39,79" fill="none" stroke="#8a6432" stroke-width="10" stroke-linecap="round"/>
    </g></svg></g>
  <circle cx="130" cy="152" r="53" fill="none" stroke="#8a6432" stroke-width="1.2" opacity=".28"/>
</svg>