<svg xmlns="http://www.w3.org/2000/svg" viewBox="0 0 260 288" role="img" aria-label="Camiseta A&amp;M">
  <path d="M105,54 Q130,83 155,54 L177,52 L233,73 L251,117 L210,133 L204,125 L212,268 L48,268 L56,125 L50,133 L9,117 L27,73 Z" fill="#ECE5D6"/>
  <path d="M105,54 Q130,83 155,54 L177,52 L233,73 L251,117 L210,133 L204,125 L212,268 L48,268 L56,125 L50,133 L9,117 L27,73 Z" fill="none" stroke="#c9bea0" stroke-width="1" opacity=".5"/>
  <path d="M46,266 L214,266" stroke="#c9bea0" stroke-width="2" opacity=".35"/>
  <path d="M108,56 Q130,82 152,56" fill="none" stroke="#d7cdb8" stroke-width="5" stroke-linecap="round"/>
  <clipPath id="pc"><circle cx="130" cy="152" r="53"/></clipPath>
  <g clip-path="url(#pc)"><svg x="77" y="99" width="106" height="106" viewBox="0 0 104 104">
    <path d="M52,52 c-2,-16 -5,-25 -11,-33 c11,2 17,10 19,23 c2,-13 8,-21 19,-23 c-6,8 -9,17 -11,33 z" fill="#1d4152"/>
    <path d="M22,64 q10,-7 20,0 t20,0 t20,0" fill="none" stroke="#1d4152" stroke-width="3.4" stroke-linecap="round" opacity=".9"/>
    <path d="M24,74 q10,-7 20,0 t20,0 t18,0" fill="none" stroke="#1d4152" stroke-width="3.4" stroke-linecap="round" opacity=".6"/></svg></g>
  <circle cx="130" cy="152" r="53" fill="none" stroke="#1d4152" stroke-width="1.2" opacity=".28"/>
</svg>